<svg xmlns="http://www.w3.org/2000/svg" xmlns:xlink="http://www.w3.org/1999/xlink" width="1680" height="1025.91"><g transform="translate(-40 -148.99999999999997)"><g filter="url(#a)"><path d="M170 690.14l110 60-110 60-110-60z" stroke="#33332f" stroke-width="2" fill="#ffffed"/><use xlink:href="#b" transform="matrix(1,0,0,1,65,695.139450310005) translate(51 47.8)"/><use xlink:href="#c" transform="matrix(1,0,0,1,65,695.139450310005) translate(70 47.8)"/><use xlink:href="#d" transform="matrix(1,0,0,1,65,695.139450310005) translate(100 47.8)"/><use xlink:href="#e" transform="matrix(1,0,0,1,65,695.139450310005) translate(66.55 69.4)"/></g><g filter="url(#f)"><path d="M280 480h160v120H280z" stroke="#33332f" stroke-width="2" fill="#ffffed"/><use xlink:href="#g" transform="matrix(1,0,0,1,285,485) translate(26.549999999999997 37)"/><use xlink:href="#h" transform="matrix(1,0,0,1,285,485) translate(75.5 37)"/><use xlink:href="#i" transform="matrix(1,0,0,1,285,485) translate(90.5 37)"/><use xlink:href="#j" transform="matrix(1,0,0,1,285,485) translate(19.549999999999997 58.6)"/><use xlink:href="#k" transform="matrix(1,0,0,1,285,485) translate(79.5 58.6)"/><use xlink:href="#l" transform="matrix(1,0,0,1,285,485) translate(27.099999999999994 80.20000000000002)"/><use xlink:href="#m" transform="matrix(1,0,0,1,285,485) translate(68 80.20000000000002)"/></g><path d="M170 691.9l-1.12-2.17-.9-1.9-.7-1.66-.54-1.5-.43-1.35-.33-1.22-.26-1.13-.18-1.03-.14-.97-.1-.9-.04-.84-.02-.8.02-.75.05-.72.06-.68.1-.66.13-.64.13-.62.17-.6.2-.6.2-.56.25-.56.26-.56.3-.55.32-.55.35-.55.38-.54.42-.56.46-.55.5-.57.56-.56.6-.58.7-.6.76-.6.85-.6.98-.65 1.1-.66 1.25-.7 1.46-.7 1.7-.76 2-.78 2.43-.84 2.98-.88 3.77-.95 4.9-1.04 6.83-1.12 10.58-1.28 29.68-2.2 40.38-2.9 13.87-1.68 9.62-1.58 7.32-1.53 5.84-1.47 4.8-1.43 4.03-1.4 3.46-1.33 2.97-1.32 2.6-1.28 2.3-1.25 2.04-1.23 1.83-1.2 1.64-1.2 1.5-1.16 1.34-1.15 1.24-1.15 1.13-1.15 1.04-1.15.95-1.15.88-1.15.8-1.16.76-1.18.7-1.2.63-1.2.6-1.24.52-1.27.5-1.3.44-1.35.38-1.4.34-1.45.3-1.5.24-1.6.18-1.66.1-1.77.06-1.88V600M170 691.9l.95 2.84" stroke="#000" stroke-width="2" fill="none"/><path d="M361.88 614.88l-9.1-1.74L360 600z"/><path d="M363.04 616.12l-11.8-2.25 7.62-13.87H361zm-8.73-3.7l6.4 1.22-1.3-10.46z"/><path fill="#fff" d="M83.47 663.26h163.85v21.6H83.47z"/><use xlink:href="#n" transform="matrix(1,0,0,1,83.46899642629226,663.2625745067204) translate(0 14.4)"/><use xlink:href="#o" transform="matrix(1,0,0,1,83.46899642629226,663.2625745067204) translate(39.35 14.4)"/><use xlink:href="#p" transform="matrix(1,0,0,1,83.46899642629226,663.2625745067204) translate(58.3 14.4)"/><use xlink:href="#q" transform="matrix(1,0,0,1,83.46899642629226,663.2625745067204) translate(101.55 14.4)"/><use xlink:href="#r" transform="matrix(1,0,0,1,83.46899642629226,663.2625745067204) translate(122.5 14.4)"/><path d="M170 808.87l4.66 8.15 4.68 7.42 4.7 6.8 4.72 6.28 4.78 5.8 4.83 5.42 4.92 5.06 5 4.74 5.15 4.46 5.28 4.22 5.46 4 5.66 3.8 5.9 3.6 6.22 3.43 6.55 3.28 6.97 3.13 7.47 2.98 8.08 2.85 8.83 2.68 9.8 2.55 11.03 2.38 12.74 2.2 15.18 1.95 19.15 1.66 27.2 1.2 105.03-.36M170 808.87l-1.53-2.58" stroke="#000" stroke-width="2" fill="none"/><path d="M480 908.54l-14.25 4.68-.03-9.27z"/><path d="M480 907.5v2.1l-15.25 5-.04-12.02zm-13.25 4.34l10-3.3-10.03-3.2z"/><path fill="#fff" d="M173 821.03h22.95v21.6H173z"/><use xlink:href="#s" transform="matrix(1,0,0,1,173.0025540454861,821.0333528269566) translate(0 14.4)"/><g filter="url(#f)"><path d="M480 848.54h160v120H480z" stroke="#33332f" stroke-width="2" fill="#ffffed"/><use xlink:href="#g" transform="matrix(1,0,0,1,485,853.5394503100051) translate(4.099999999999994 47.8)"/><use xlink:href="#h" transform="matrix(1,0,0,1,485,853.5394503100051) translate(53.05 47.8)"/><use xlink:href="#t" transform="matrix(1,0,0,1,485,853.5394503100051) translate(68.05 47.8)"/><use xlink:href="#u" transform="matrix(1,0,0,1,485,853.5394503100051) translate(130.9 47.8)"/><use xlink:href="#v" transform="matrix(1,0,0,1,485,853.5394503100051) translate(47.55 69.4)"/></g><path d="M360 480v-31.46" stroke="#000" stroke-width="2" fill="none"/><path d="M361 480h-2 2zM364.64 462.8h-9.28l4.64-14.26z"/><path d="M366 463.8h-12l4.95-15.26h2.1zm-9.26-2h6.52L360 451.8z"/><g filter="url(#f)"><path d="M280 328.54h160v120H280z" stroke="#301c07" stroke-width="2" fill="#ef8d22"/><use xlink:href="#w" transform="matrix(1,0,0,1,285,333.5394503100051) translate(9.099999999999994 37)"/><use xlink:href="#x" transform="matrix(1,0,0,1,285,333.5394503100051) translate(53.99999999999999 37)"/><use xlink:href="#y" transform="matrix(1,0,0,1,285,333.5394503100051) translate(79 37)"/><use xlink:href="#z" transform="matrix(1,0,0,1,285,333.5394503100051) translate(30.525 58.6)"/><use xlink:href="#A" transform="matrix(1,0,0,1,285,333.5394503100051) translate(64.525 58.6)"/><use xlink:href="#B" transform="matrix(1,0,0,1,285,333.5394503100051) translate(98.525 58.6)"/><use xlink:href="#C" transform="matrix(1,0,0,1,285,333.5394503100051) translate(49.525 80.20000000000002)"/></g><path d="M440 388.54h40" stroke="#000" stroke-width="2" fill="none"/><path d="M440 389.54v-2zM480 388.54l-14.27 4.63v-9.27z"/><path d="M480 387.5v2.1l-15.27 4.95v-12.02zm-13.27 4.3l10.03-3.26-10.03-3.26z"/><g filter="url(#f)"><path d="M480 328.54h160v120H480z" stroke="#33332f" stroke-width="2" fill="#ffffed"/><use xlink:href="#g" transform="matrix(1,0,0,1,485,333.5394503100051) translate(4.099999999999994 47.8)"/><use xlink:href="#h" transform="matrix(1,0,0,1,485,333.5394503100051) translate(53.05 47.8)"/><use xlink:href="#t" transform="matrix(1,0,0,1,485,333.5394503100051) translate(68.05 47.8)"/><use xlink:href="#u" transform="matrix(1,0,0,1,485,333.5394503100051) translate(130.9 47.8)"/><use xlink:href="#C" transform="matrix(1,0,0,1,485,333.5394503100051) translate(49.525 69.4)"/></g><g filter="url(#f)"><path d="M680 328.54h160v120H680z" stroke="#33332f" stroke-width="2" fill="#ffffed"/><use xlink:href="#D" transform="matrix(1,0,0,1,685,333.5394503100051) translate(27.075000000000003 58.6)"/><use xlink:href="#E" transform="matrix(1,0,0,1,685,333.5394503100051) translate(71.975 58.6)"/></g><g filter="url(#a)"><path d="M1590 328.54l110 60-110 60-110-60z" stroke="#33332f" stroke-width="2" fill="#ffffed"/><use xlink:href="#F" transform="matrix(1,0,0,1,1485,333.5394503100051) translate(73.525 47.8)"/><use xlink:href="#G" transform="matrix(1,0,0,1,1485,333.5394503100051) translate(58.575 69.4)"/><use xlink:href="#H" transform="matrix(1,0,0,1,1485,333.5394503100051) translate(115.42500000000001 69.4)"/></g><g filter="url(#f)"><path d="M960 328.54l80 60-80 60-80-60z" stroke="#33332f" stroke-width="2" fill="#ffffed"/><use xlink:href="#I" transform="matrix(1,0,0,1,885.0000000000001,333.5394503100051) translate(33.525 58.6)"/><use xlink:href="#J" transform="matrix(1,0,0,1,885.0000000000001,333.5394503100051) translate(80.475 58.6)"/></g><path d="M640 908.54h40" stroke="#000" stroke-width="2" fill="none"/><path d="M640 909.54v-2zM680 908.54l-14.27 4.63v-9.27z"/><path d="M680 907.5v2.1l-15.27 4.95v-12.02zm-13.27 4.3l10.03-3.26-10.03-3.26z"/><g filter="url(#f)"><path d="M480 480h160v120H480z" stroke="#33332f" stroke-width="2" fill="#ffffed"/><use xlink:href="#K" transform="matrix(1,0,0,1,485,485) translate(49.55 37)"/><use xlink:href="#L" transform="matrix(1,0,0,1,485,485) translate(49.525 58.6)"/><use xlink:href="#M" transform="matrix(1,0,0,1,485,485) translate(37.55 80.20000000000002)"/><use xlink:href="#m" transform="matrix(1,0,0,1,485,485) translate(57.55 80.20000000000002)"/></g><g filter="url(#f)"><path d="M1080 328.54h160v120h-160z" stroke="#33332f" stroke-width="2" fill="#ffffed"/><use xlink:href="#N" transform="matrix(1,0,0,1,1085,333.5394503100051) translate(19.074999999999996 47.8)"/><use xlink:href="#O" transform="matrix(1,0,0,1,1085,333.5394503100051) translate(79.975 47.8)"/><use xlink:href="#P" transform="matrix(1,0,0,1,1085,333.5394503100051) translate(22.025 69.4)"/><use xlink:href="#Q" transform="matrix(1,0,0,1,1085,333.5394503100051) translate(42.025 69.4)"/><use xlink:href="#R" transform="matrix(1,0,0,1,1085,333.5394503100051) translate(64.975 69.4)"/><use xlink:href="#S" transform="matrix(1,0,0,1,1085,333.5394503100051) translate(98.975 69.4)"/></g><path d="M640 388.54h40" stroke="#000" stroke-width="2" fill="none"/><path d="M640 389.54v-2zM680 388.54l-14.27 4.63v-9.27z"/><path d="M680 387.5v2.1l-15.27 4.95v-12.02zm-13.27 4.3l10.03-3.26-10.03-3.26z"/><g filter="url(#f)"><path d="M1360 328.54l80 60-80 60-80-60z" stroke="#33332f" stroke-width="2" fill="#ffffed"/><use xlink:href="#T" transform="matrix(1,0,0,1,1285,333.5394503100051) translate(12.599999999999994 58.6)"/><use xlink:href="#H" transform="matrix(1,0,0,1,1285,333.5394503100051) translate(101.4 58.6)"/></g><path d="M1037.47 388.54l1.44 1.7 1.35 1.26 1.3.97 1.33.74 1.37.6 1.5.42 1.7.28 2.07.1 2.8-.23 4.93-1 18-4.5 4.32-.33h.43M1037.47 388.54l-2.72-1.25" stroke="#000" stroke-width="2" fill="none"/><path d="M1080 388.54l-13.14 7.24-1.74-9.1z"/><path d="M1080 387.53v2.15l-13.86 7.64-2.27-11.8zm-12.4 6.7l9.22-5.08-10.46-1.3z"/><use xlink:href="#U" transform="matrix(1,0,0,1,1045.3661885979825,366.02711466184513) translate(0 14.4)"/><path d="M840 388.54l4.2.26 6.23 1.18 16.9 4.3 2.7.17 2-.12 1.67-.3 1.46-.46 1.36-.6 1.3-.8 1.32-1.02 1.37-1.36 1.03-1.26" stroke="#000" stroke-width="2" fill="none"/><path d="M840.17 387.55l-.17 1v-1.03z"/><path d="M881.53 388.54l-11.15 10.04-3.77-8.47z" stroke="#000" stroke-width="2"/><path d="M840 388.54l4.2.26 6.06 1.1 17.8 4.52 2.7.17 2-.13 1.67-.3 1.48-.44 1.37-.6 1.32-.76 1.3-1 1.35-1.3 1.28-1.53" stroke="#000" stroke-width="2" fill="none"/><path d="M840.17 387.55l-.17 1v-1.03z"/><path d="M882.53 388.54L871.5 398.7l-3.87-8.4z" stroke="#000" stroke-width="2"/><path d="M960 328.54l-.1-5-.27-4.35-.4-3.83-.5-3.4-.58-3.03-.64-2.74-.7-2.48-.72-2.27-.78-2.08-.8-1.92-.84-1.78-.87-1.66-.9-1.55-.93-1.46-.96-1.38-.98-1.3-1.02-1.24-1.05-1.17-1.1-1.1-1.14-1.08-1.18-1.03-1.24-1-1.3-.94-1.37-.9-1.43-.88-1.53-.84-1.62-.8-1.73-.78-1.87-.73-2-.7-2.18-.65-2.37-.6-2.6-.56-2.9-.5-3.2-.4-3.63-.3-4.13-.17h-4.78l-5.62.24-6.73.56-8.34 1.06-10.72 1.83-14.84 3.17-24.38 6.32-121.7 34.98-20.1 4.3-15.4 2.6-12.53 1.6-10.57.9-9.1.38-4.1.05" stroke="#000" stroke-width="2" fill="none"/><path d="M961.06 329.33l-1.06-.8-.95.72-.05-.65 2-.13z"/><path d="M639.52 329.95l14.07-5.18.35 9.26z" stroke="#000" stroke-width="2"/><path fill="#fff" d="M947.27 301.3h22.95v21.6h-22.95z"/><use xlink:href="#s" transform="matrix(1,0,0,1,947.2674695853609,301.28771290223455) translate(0 14.4)"/><path d="M1360 328.53l-.23-11.23-.6-9.8-.9-8.6-1.14-7.63-1.3-6.84-1.44-6.17-1.58-5.6-1.65-5.1-1.75-4.7-1.82-4.33-1.9-4.02-1.95-3.74-2.02-3.5-2.1-3.3-2.15-3.1-2.23-2.95-2.3-2.77-2.4-2.66-2.48-2.53-2.58-2.42-2.7-2.32-2.8-2.22-2.95-2.14-3.1-2.06-3.25-1.97-3.46-1.9-3.68-1.82-3.92-1.74-4.2-1.67-4.56-1.58-4.92-1.5-5.38-1.38-5.9-1.25-6.54-1.1-7.3-.92-8.25-.7-9.4-.38h-10.87l-12.8.55-15.35 1.3-19 2.42-24.57 4.18-34.16 7.3-57.13 14.83-266.45 76.1-45.95 9.82-35.07 5.96-28.47 3.62-23.93 2.03-20.6.87-9.3.1" stroke="#000" stroke-width="2" fill="none"/><path d="M1361.02 329.3l-1.02-.76-.98.73-.02-.7 2-.07z"/><path d="M639.52 329.95l14.15-4.96.2 9.26z" stroke="#000" stroke-width="2"/><path fill="#fff" d="M1347.86 299.47h22.95v21.6h-22.94z"/><use xlink:href="#s" transform="matrix(1,0,0,1,1347.8558429920147,299.47018845870343) translate(0 14.4)"/><path d="M1240 388.54l4.2.26 6.23 1.18 16.9 4.3 2.7.17 2-.12 1.67-.3 1.46-.46 1.36-.6 1.3-.8 1.32-1.02 1.37-1.36 1.03-1.26" stroke="#000" stroke-width="2" fill="none"/><path d="M1240.17 387.55l-.17 1v-1.03z"/><path d="M1281.53 388.54l-11.15 10.04-3.77-8.47z" stroke="#000" stroke-width="2"/><path d="M1437.47 388.54l1.44 1.7 1.35 1.26 1.3.97 1.33.74 1.37.6 1.5.42 1.7.28 2.07.1 2.8-.23 4.93-1 18-4.5 4.32-.33h.43M1437.47 388.54l-2.72-1.25" stroke="#000" stroke-width="2" fill="none"/><path d="M1480 388.54l-13.14 7.24-1.74-9.1z"/><path d="M1481.5 387.72l-1.5.82 1.04.57-14.9 8.22-2.27-11.8zm-13.9 6.52l9.22-5.1-10.46-1.3z"/><use xlink:href="#U" transform="matrix(1,0,0,1,1445.401658467176,366.01821952006327) translate(0 14.4)"/><path d="M1590 328.53l-.3-14.82-.8-12.9-1.2-11.36-1.48-10.08-1.72-9.02-1.9-8.14-2.07-7.38-2.2-6.75-2.3-6.2-2.4-5.72-2.5-5.3-2.58-4.95-2.67-4.63-2.76-4.35-2.85-4.1-2.95-3.9-3.04-3.67-3.16-3.5-3.27-3.35-3.4-3.2-3.56-3.06-3.7-2.94-3.9-2.82-4.1-2.7-4.3-2.62-4.57-2.5-4.85-2.42-5.2-2.3-5.55-2.2-6-2.1-6.5-1.96-7.12-1.83-7.8-1.65-8.64-1.46-9.65-1.22-10.88-.9-12.43-.52h-14.38l-16.9.73-20.33 1.72-25.17 3.2-32.5 5.53-45.3 9.7-76 19.7-349.63 99.74-60.83 13-46.38 7.9-37.64 4.77-31.63 2.66-27.2 1.16-12.3.13" stroke="#000" stroke-width="2" fill="none"/><path d="M1591 329.1l-1-.56-1 .54v-.53l2-.04z"/><path d="M639.52 329.95l14.18-4.87.15 9.27z" stroke="#000" stroke-width="2"/><path fill="#fff" d="M1578.15 301.73h22.95v21.6h-22.95z"/><use xlink:href="#s" transform="matrix(1,0,0,1,1578.1481154032442,301.7334425349477) translate(0 14.4)"/><path d="M1590 448.55l-.3 15.13-.85 13.42-1.26 12-1.6 10.8-1.87 9.8-2.1 8.95-2.3 8.23-2.46 7.6-2.62 7.05-2.76 6.58-2.92 6.18-3.03 5.8-3.16 5.5-3.3 5.2-3.45 4.94-3.6 4.72-3.73 4.52-3.9 4.34-4.1 4.17-4.28 4.03-4.5 3.9-4.77 3.77-5.03 3.65-5.34 3.55-5.7 3.44-6.08 3.36-6.54 3.24-7.06 3.14-7.67 3.04-8.38 2.9-9.2 2.8-10.2 2.6-11.4 2.42-12.84 2.17-14.65 1.84-16.94 1.42-19.93.83-23.92-.02-29.63-1.27-38.36-3.26-53.87-6.88-95.1-16.37-332.3-63.65-64.54-8.24-47.85-4.06-38.14-1.62L640 540" stroke="#000" stroke-width="2" fill="none"/><path d="M1591 448.57l-2-.04V448l1 .54 1-.55zM654.22 544.8L640 540l14.3-4.48z"/><path d="M655.2 546.17l-15.2-5.1v-2.12l15.33-4.8zm-11.96-6.14l10 3.37.06-6.52z"/><use xlink:href="#U" transform="matrix(1,0,0,1,1596.2060335818474,472.9520151665505) translate(0 14.4)"/><g filter="url(#f)"><path d="M680 848.54h160v120H680z" stroke="#33332f" stroke-width="2" fill="#ffffed"/><use xlink:href="#D" transform="matrix(1,0,0,1,685,853.5394503100051) translate(25.099999999999994 58.6)"/><use xlink:href="#m" transform="matrix(1,0,0,1,685,853.5394503100051) translate(70 58.6)"/></g><g filter="url(#f)"><path d="M960 848.54l80 60-80 60-80-60z" stroke="#33332f" stroke-width="2" fill="#ffffed"/><use xlink:href="#I" transform="matrix(1,0,0,1,885.0000000000001,853.5394503100051) translate(33.525 58.6)"/><use xlink:href="#J" transform="matrix(1,0,0,1,885.0000000000001,853.5394503100051) translate(80.475 58.6)"/></g><g filter="url(#f)"><path d="M1080 848.54h160v120h-160z" stroke="#33332f" stroke-width="2" fill="#ffffed"/><use xlink:href="#N" transform="matrix(1,0,0,1,1085,853.5394503100051) translate(17.099999999999994 47.8)"/><use xlink:href="#V" transform="matrix(1,0,0,1,1085,853.5394503100051) translate(78 47.8)"/><use xlink:href="#W" transform="matrix(1,0,0,1,1085,853.5394503100051) translate(18.5 69.4)"/><use xlink:href="#X" transform="matrix(1,0,0,1,1085,853.5394503100051) translate(38.5 69.4)"/><use xlink:href="#Y" transform="matrix(1,0,0,1,1085,853.5394503100051) translate(68.5 69.4)"/><use xlink:href="#S" transform="matrix(1,0,0,1,1085,853.5394503100051) translate(102.5 69.4)"/></g><g filter="url(#f)"><path d="M1360 848.54l80 60-80 60-80-60z" stroke="#33332f" stroke-width="2" fill="#ffffed"/><use xlink:href="#T" transform="matrix(1,0,0,1,1285,853.5394503100051) translate(12.599999999999994 58.6)"/><use xlink:href="#H" transform="matrix(1,0,0,1,1285,853.5394503100051) translate(101.4 58.6)"/></g><path d="M840 908.54l4.2.26 6.23 1.18 16.9 4.3 2.7.17 2-.12 1.67-.3 1.46-.46 1.36-.6 1.3-.8 1.32-1.02 1.37-1.36 1.03-1.26" stroke="#000" stroke-width="2" fill="none"/><path d="M840.17 907.55l-.17 1v-1.03z"/><path d="M881.53 908.54l-11.15 10.04-3.77-8.47z" stroke="#000" stroke-width="2"/><path d="M1037.47 908.54l1.44 1.7 1.35 1.24 1.3.95 1.33.73 1.38.56 1.5.4 1.76.27 2.17.03 3.02-.3 6.7-1.58 13.86-3.53 4.57-.46 1.15-.02M1037.47 908.54l-2.74-1.22" stroke="#000" stroke-width="2" fill="none"/><path d="M1079 908.54l-13.16 7.2-1.72-9.12z"/><path d="M1080 907.66v1.47l-14.9 8.14-2.2-11.8zm-13.43 6.54l9.25-5.06-10.46-1.35z"/><use xlink:href="#U" transform="matrix(1,0,0,1,1045.379305699671,885.7004109805234) translate(0 14.4)"/><path d="M1240 908.54l4.2.26 6.23 1.18 16.9 4.3 2.7.17 2-.12 1.67-.3 1.46-.46 1.36-.6 1.3-.8 1.32-1.02 1.37-1.36 1.03-1.26" stroke="#000" stroke-width="2" fill="none"/><path d="M1240.17 907.55l-.17 1v-1.03z"/><path d="M1281.53 908.54l-11.15 10.04-3.77-8.47z" stroke="#000" stroke-width="2"/><path d="M1437.47 908.54l1.44 1.7 1.35 1.24 1.3.95 1.33.73 1.38.56 1.5.4 1.76.27 2.17.03 3.02-.3 6.7-1.58 13.86-3.53 4.57-.46 1.15-.02M1437.47 908.54l-2.74-1.22" stroke="#000" stroke-width="2" fill="none"/><path d="M1479 908.54l-13.16 7.2-1.72-9.12z"/><path d="M1480 907.66v1.47l-14.9 8.14-2.2-11.8zm-13.43 6.54l9.25-5.06-10.46-1.35z"/><use xlink:href="#U" transform="matrix(1,0,0,1,1445.3793056996774,885.700410980522) translate(0 14.4)"/><path d="M960 966.8l1.72 2.38 1.46 2.22 1.24 2.07 1.06 1.95.9 1.83.76 1.74.64 1.64.54 1.58.45 1.52.36 1.46.3 1.4.22 1.37.16 1.34.1 1.3.06 1.28v1.25l-.07 1.24-.12 1.22-.16 1.2-.2 1.22-.28 1.2-.32 1.22-.37 1.22-.44 1.23-.5 1.23-.56 1.26-.64 1.27-.73 1.3-.83 1.35-.92 1.38-1.05 1.42-1.17 1.46-1.33 1.52-1.5 1.58-1.7 1.64-1.94 1.72-2.2 1.8-2.53 1.9-2.9 2-3.37 2.1-3.9 2.2-4.52 2.35-5.3 2.44-6.2 2.57-7.3 2.67-8.58 2.72-10 2.72-11.64 2.65-13.3 2.45-14.93 2.1-16.3 1.63-17.26.98-17.6.27-17.3-.46-16.5-1.13-15.26-1.68-13.86-2.13-12.4-2.44-10.97-2.64-9.67-2.76-8.5-2.8-7.47-2.83-6.57-2.8-5.8-2.78-5.13-2.7-4.54-2.67-4.05-2.6-3.6-2.53-3.24-2.48-2.9-2.43-2.6-2.38-2.36-2.33-2.13-2.3-1.93-2.25-1.75-2.23-1.58-2.2-1.45-2.2-1.3-2.18-1.18-2.17-1.06-2.17-.95-2.18-.85-2.2-.76-2.2-.66-2.23-.56-2.27-.48-2.3-.38-2.35-.3-2.4-.18-2.48-.1-2.55v-.94M960 966.8l-1.5-2.62" stroke="#000" stroke-width="2" fill="none"/><path d="M643.38 982.8l-9.2 1.17 2.8-14.74z"/><path d="M644.87 983.6l-11.92 1.54 3.14-16.6h1.65zm-9.44-.8l6.46-.82-4.5-9.54z"/><path fill="#fff" d="M958.1 976.78h22.96v21.6H958.1z"/><use xlink:href="#s" transform="matrix(1,0,0,1,958.1084362136796,976.7800337752213) translate(0 14.4)"/><path d="M1360 966.8l3.86 5.36 3.27 4.97 2.78 4.65 2.37 4.36 2 4.1 1.72 3.9 1.42 3.68 1.2 3.53 1 3.4.83 3.24.65 3.14.5 3.05.35 2.96.23 2.9.1 2.84v2.8l-.14 2.74-.25 2.72-.37 2.7-.47 2.7-.6 2.7-.7 2.68-.83 2.7-.97 2.73-1.1 2.76-1.27 2.8-1.44 2.84-1.62 2.9-1.83 2.98-2.04 3.05-2.3 3.14-2.6 3.24-2.95 3.36-3.3 3.5-3.77 3.63-4.27 3.8-4.88 4-5.58 4.17-6.42 4.4-7.4 4.64-8.6 4.88-10 5.15-11.68 5.42-13.7 5.66-16.1 5.86-18.88 6-22.1 6.03-25.68 5.85-29.44 5.43-33.13 4.68-36.3 3.6-38.48 2.2-39.42.58-38.9-1.02-37.13-2.55-34.5-3.82-31.34-4.8-28.04-5.5-24.87-5.98-21.93-6.24-19.26-6.38-16.9-6.4-14.9-6.35-13.1-6.26-11.6-6.15-10.3-6-9.13-5.88-8.15-5.73-7.3-5.6-6.54-5.5-5.9-5.35-5.3-5.27-4.8-5.17-4.35-5.1-3.94-5.02-3.58-4.97-3.24-4.93-2.93-4.9-2.65-4.9-2.4-4.87-2.13-4.9-1.92-4.92-1.7-4.96-1.47-5.02-1.28-5.08-1.06-5.17-.86-5.27-.65-5.4-.43-5.52-.2-5.7-.02-2.1M1360 966.8l-1.67-2.5" stroke="#000" stroke-width="2" fill="none"/><path d="M642.4 983.2l-9.24.54 3.82-14.5z"/><path d="M643.84 984.13l-12 .7 4.3-16.3h1.64zm-9.37-1.47l6.5-.37-3.8-9.84z"/><path fill="#fff" d="M1360 973.87h22.95v21.6H1360z"/><use xlink:href="#s" transform="matrix(1,0,0,1,1360.0021926111706,973.8732584298538) translate(0 14.4)"/><path d="M560 600v247.54" stroke="#000" stroke-width="2" fill="none"/><path d="M561 600h-2 2zM560 847.54l-4.64-14.27h9.28z"/><path d="M560.73 848.54h-1.46L554 832.27h12zm-4-14.27L560 844.3l3.26-10.03z"/><g filter="url(#f)"><path d="M1480 848.54h160v120h-160z" stroke="#33332f" stroke-width="2" fill="#ffffed"/><use xlink:href="#Z" transform="matrix(1,0,0,1,1485,853.5394503100051) translate(9.599999999999994 47.8)"/><use xlink:href="#aa" transform="matrix(1,0,0,1,1485,853.5394503100051) translate(65.5 47.8)"/><use xlink:href="#ab" transform="matrix(1,0,0,1,1485,853.5394503100051) translate(125.4 47.8)"/><use xlink:href="#ac" transform="matrix(1,0,0,1,1485,853.5394503100051) translate(33.05 69.4)"/></g><defs><path d="M33 0v-248h34V0H33" id="ad"/><path d="M135-143c-3-34-86-38-87 0 15 53 115 12 119 90S17 21 10-45l28-5c4 36 97 45 98 0-10-56-113-15-118-90-4-57 82-63 122-42 12 7 21 19 24 35" id="ae"/><g id="b"><use transform="matrix(0.05,0,0,0.05,0,0)" xlink:href="#ad"/><use transform="matrix(0.05,0,0,0.05,5,0)" xlink:href="#ae"/></g><path d="M59-47c-2 24 18 29 38 22v24C64 9 27 4 27-40v-127H5v-23h24l9-43h21v43h35v23H59v120" id="af"/><path d="M106-169C34-169 62-67 57 0H25v-261h32l-1 103c12-21 28-36 61-36 89 0 53 116 60 194h-32v-121c2-32-8-49-39-48" id="ag"/><path d="M100-194c63 0 86 42 84 106H49c0 40 14 67 53 68 26 1 43-12 49-29l28 8c-11 28-37 45-77 45C44 4 14-33 15-96c1-61 26-98 85-98zm52 81c6-60-76-77-97-28-3 7-6 17-6 28h103" id="ah"/><g id="c"><use transform="matrix(0.05,0,0,0.05,0,0)" xlink:href="#af"/><use transform="matrix(0.05,0,0,0.05,5,0)" xlink:href="#ag"/><use transform="matrix(0.05,0,0,0.05,15,0)" xlink:href="#ah"/></g><path d="M96-169c-40 0-48 33-48 73s9 75 48 75c24 0 41-14 43-38l32 2c-6 37-31 61-74 61-59 0-76-41-82-99-10-93 101-131 147-64 4 7 5 14 7 22l-32 3c-4-21-16-35-41-35" id="ai"/><path d="M141-36C126-15 110 5 73 4 37 3 15-17 15-53c-1-64 63-63 125-63 3-35-9-54-41-54-24 1-41 7-42 31l-33-3c5-37 33-52 76-52 45 0 72 20 72 64v82c-1 20 7 32 28 27v20c-31 9-61-2-59-35zM48-53c0 20 12 33 32 33 41-3 63-29 60-74-43 2-92-5-92 41" id="aj"/><path d="M117-194c89-4 53 116 60 194h-32v-121c0-31-8-49-39-48C34-167 62-67 57 0H25l-1-190h30c1 10-1 24 2 32 11-22 29-35 61-36" id="ak"/><path d="M177-190C167-65 218 103 67 71c-23-6-38-20-44-43l32-5c15 47 100 32 89-28v-30C133-14 115 1 83 1 29 1 15-40 15-95c0-56 16-97 71-98 29-1 48 16 59 35 1-10 0-23 2-32h30zM94-22c36 0 50-32 50-73 0-42-14-75-50-75-39 0-46 34-46 75s6 73 46 73" id="al"/><g id="d"><use transform="matrix(0.05,0,0,0.05,0,0)" xlink:href="#ai"/><use transform="matrix(0.05,0,0,0.05,9,0)" xlink:href="#ag"/><use transform="matrix(0.05,0,0,0.05,19,0)" xlink:href="#aj"/><use transform="matrix(0.05,0,0,0.05,29,0)" xlink:href="#ak"/><use transform="matrix(0.05,0,0,0.05,39,0)" xlink:href="#al"/><use transform="matrix(0.05,0,0,0.05,49,0)" xlink:href="#ah"/></g><path d="M100-194c62-1 85 37 85 99 1 63-27 99-86 99S16-35 15-95c0-66 28-99 85-99zM99-20c44 1 53-31 53-75 0-43-8-75-51-75s-53 32-53 75 10 74 51 75" id="am"/><path d="M210-169c-67 3-38 105-44 169h-31v-121c0-29-5-50-35-48C34-165 62-65 56 0H25l-1-190h30c1 10-1 24 2 32 10-44 99-50 107 0 11-21 27-35 58-36 85-2 47 119 55 194h-31v-121c0-29-5-49-35-48" id="an"/><path d="M115-194c55 1 70 41 70 98S169 2 115 4C84 4 66-9 55-30l1 105H24l-1-265h31l2 30c10-21 28-34 59-34zm-8 174c40 0 45-34 45-75s-6-73-45-74c-42 0-51 32-51 76 0 43 10 73 51 73" id="ao"/><path d="M24 0v-261h32V0H24" id="ap"/><path d="M141 0L90-78 38 0H4l68-98-65-92h35l48 74 47-74h35l-64 92 68 98h-35" id="aq"/><path d="M103-251c84 0 111 97 45 133-19 10-37 24-39 52H78c0-63 77-55 77-114 0-30-21-42-52-43-32 0-53 17-56 46l-32-2c7-45 34-72 88-72zM77 0v-35h34V0H77" id="ar"/><g id="e"><use transform="matrix(0.05,0,0,0.05,0,0)" xlink:href="#ai"/><use transform="matrix(0.05,0,0,0.05,9,0)" xlink:href="#am"/><use transform="matrix(0.05,0,0,0.05,19,0)" xlink:href="#an"/><use transform="matrix(0.05,0,0,0.05,33.95,0)" xlink:href="#ao"/><use transform="matrix(0.05,0,0,0.05,43.95,0)" xlink:href="#ap"/><use transform="matrix(0.05,0,0,0.05,47.900000000000006,0)" xlink:href="#ah"/><use transform="matrix(0.05,0,0,0.05,57.900000000000006,0)" xlink:href="#aq"/><use transform="matrix(0.05,0,0,0.05,66.9,0)" xlink:href="#ar"/></g><filter id="a" filterUnits="objectBoundingBox" x="-.02" y="-.02" width="1.05" height="1.08"><feOffset result="offOut" in="SourceAlpha" dy="3"/><feGaussianBlur result="blurOut" in="offOut" stdDeviation="2.5"/><feColorMatrix result="colorOut" in="blurOut" values="0 0 0 0 0 0 0 0 0 0 0 0 0 0 0 0 0 0 0.5019607843137255 0"/><feBlend in="SourceGraphic" in2="colorOut"/></filter><path d="M240 0l2-218c-23 76-54 145-80 218h-23L58-218 59 0H30v-248h44l77 211c21-75 51-140 76-211h43V0h-30" id="as"/><path d="M143 0L79-87 56-68V0H24v-261h32v163l83-92h37l-77 82L181 0h-38" id="at"/><g id="g"><use transform="matrix(0.05,0,0,0.05,0,0)" xlink:href="#as"/><use transform="matrix(0.05,0,0,0.05,14.950000000000001,0)" xlink:href="#aj"/><use transform="matrix(0.05,0,0,0.05,24.950000000000003,0)" xlink:href="#at"/><use transform="matrix(0.05,0,0,0.05,33.95,0)" xlink:href="#ah"/></g><use transform="matrix(0.05,0,0,0.05,0,0)" xlink:href="#aj" id="h"/><path d="M206 0h-36l-40-164L89 0H53L-1-190h32L70-26l43-164h34l41 164 42-164h31" id="au"/><g id="i"><use transform="matrix(0.05,0,0,0.05,0,0)" xlink:href="#ak"/><use transform="matrix(0.05,0,0,0.05,10,0)" xlink:href="#ah"/><use transform="matrix(0.05,0,0,0.05,20,0)" xlink:href="#au"/></g><path d="M115-194c53 0 69 39 70 98 0 66-23 100-70 100C84 3 66-7 56-30L54 0H23l1-261h32v101c10-23 28-34 59-34zm-8 174c40 0 45-34 45-75 0-40-5-75-45-74-42 0-51 32-51 76 0 43 10 73 51 73" id="av"/><path d="M114-163C36-179 61-72 57 0H25l-1-190h30c1 12-1 29 2 39 6-27 23-49 58-41v29" id="aw"/><g id="j"><use transform="matrix(0.05,0,0,0.05,0,0)" xlink:href="#av"/><use transform="matrix(0.05,0,0,0.05,10,0)" xlink:href="#aw"/><use transform="matrix(0.05,0,0,0.05,15.949999999999998,0)" xlink:href="#aj"/><use transform="matrix(0.05,0,0,0.05,25.950000000000003,0)" xlink:href="#ak"/><use transform="matrix(0.05,0,0,0.05,35.95,0)" xlink:href="#ai"/><use transform="matrix(0.05,0,0,0.05,44.95,0)" xlink:href="#ag"/></g><path d="M66-151c12-25 30-51 66-40l-6 26C45-176 58-65 38 0H6l36-190h30" id="ax"/><path d="M51-54c-9 22 5 41 31 30L79-1C43 14 10-4 19-52l22-115H19l5-23h22l19-43h21l-9 43h35l-4 23H73" id="ay"/><path d="M184-94c-4 58-33 98-90 98-50 0-74-35-74-86 0-94 36-181 136-167 24 3 39 21 44 47l-29 6c-8-40-68-34-87-5-13 20-24 43-30 73 28-51 135-39 130 34zm-73-42c-35 2-61 22-60 62 1 30 14 52 44 52 38 0 55-31 56-70 1-26-14-46-40-44" id="az"/><path d="M40-53c7 41 73 38 88 5 14-18 25-43 30-72-13 20-31 35-60 35-44 0-69-27-69-70 0-57 32-96 91-96 58 0 76 44 72 106C186-56 125 37 35-9c-12-6-19-20-23-36zm62-57c67 0 87-116 17-116-39 0-58 29-58 71 1 27 12 45 41 45" id="aA"/><g id="k"><use transform="matrix(0.05,0,0,0.05,0,0)" xlink:href="#ax"/><use transform="matrix(0.05,0,0,0.05,5.95,0)" xlink:href="#ay"/><use transform="matrix(0.05,0,0,0.05,10.95,0)" xlink:href="#az"/><use transform="matrix(0.05,0,0,0.05,20.95,0)" xlink:href="#az"/><use transform="matrix(0.05,0,0,0.05,30.950000000000003,0)" xlink:href="#aA"/><use transform="matrix(0.05,0,0,0.05,40.95,0)" xlink:href="#aA"/></g><path d="M101-234c-31-9-42 10-38 44h38v23H63V0H32v-167H5v-23h27c-7-52 17-82 69-68v24" id="aB"/><g id="l"><use transform="matrix(0.05,0,0,0.05,0,0)" xlink:href="#aB"/><use transform="matrix(0.05,0,0,0.05,5,0)" xlink:href="#aw"/><use transform="matrix(0.05,0,0,0.05,10.95,0)" xlink:href="#am"/><use transform="matrix(0.05,0,0,0.05,20.95,0)" xlink:href="#an"/></g><path d="M248-111c6-24 9-61-24-58-72 9-57 108-77 169h-31l26-142c3-37-50-30-64-10C52-115 50-51 37 0H6l36-190h30c-1 10-6 24-4 32 13-43 101-52 105 5 13-22 29-41 61-41 90 0 28 129 23 194h-31" id="aC"/><path d="M165-48c-4 18 1 34 23 27l-3 20c-29 8-62 0-52-35h-2C116-14 99 4 63 4 30 4 8-16 8-49c0-68 71-67 138-67 10-26 0-56-31-54-26 1-42 9-47 31l-32-5c8-67 160-71 144 15-5 28-9 54-15 81zM42-50c3 52 80 24 89-6 7-12 7-24 11-38-47 1-103-4-100 44" id="aD"/><path d="M55-144c13 50 104 24 104 88C159 21 15 23 1-39l26-10c6 40 102 42 102-4-13-50-104-23-104-87 0-71 143-71 148-8l-29 4c-5-35-85-37-89 0" id="aE"/><path d="M111-194c62-3 86 47 72 106H45c-7 38 6 69 45 68 27-1 43-14 53-32l24 11C152-15 129 4 87 4 38 3 12-23 12-71c0-70 32-119 99-123zm44 81c14-66-71-72-95-28-4 8-8 17-11 28h106" id="aF"/><g id="m"><use transform="matrix(0.05,0,0,0.05,0,0)" xlink:href="#aC"/><use transform="matrix(0.05,0,0,0.05,14.950000000000001,0)" xlink:href="#aD"/><use transform="matrix(0.05,0,0,0.05,24.950000000000003,0)" xlink:href="#aE"/><use transform="matrix(0.05,0,0,0.05,33.95,0)" xlink:href="#ay"/><use transform="matrix(0.05,0,0,0.05,38.95,0)" xlink:href="#aF"/><use transform="matrix(0.05,0,0,0.05,48.95,0)" xlink:href="#ax"/></g><filter id="f" filterUnits="objectBoundingBox" x="-.03" y="-.02" width="1.06" height="1.08"><feOffset result="offOut" in="SourceAlpha" dy="3"/><feGaussianBlur result="blurOut" in="offOut" stdDeviation="2.5"/><feColorMatrix result="colorOut" in="blurOut" values="0 0 0 0 0 0 0 0 0 0 0 0 0 0 0 0 0 0 0.5019607843137255 0"/><feBlend in="SourceGraphic" in2="colorOut"/></filter><path d="M137-103V0h-34v-103L8-248h37l75 118 75-118h37" id="aG"/><path d="M68-38c1 34 0 65-14 84H32c9-13 17-26 17-46H33v-38h35" id="aH"/><g id="n"><use transform="matrix(0.05,0,0,0.05,0,0)" xlink:href="#aG"/><use transform="matrix(0.05,0,0,0.05,10.35,0)" xlink:href="#ah"/><use transform="matrix(0.05,0,0,0.05,20.35,0)" xlink:href="#ae"/><use transform="matrix(0.05,0,0,0.05,29.35,0)" xlink:href="#aH"/></g><path d="M24-231v-30h32v30H24zM24 0v-190h32V0H24" id="aI"/><g id="o"><use transform="matrix(0.05,0,0,0.05,0,0)" xlink:href="#aI"/><use transform="matrix(0.05,0,0,0.05,3.95,0)" xlink:href="#ak"/></g><path d="M109-170H84l-4-78h32zm-65 0H19l-4-78h33" id="aJ"/><g id="p"><use transform="matrix(0.05,0,0,0.05,0,0)" xlink:href="#aJ"/><use transform="matrix(0.05,0,0,0.05,6.3500000000000005,0)" xlink:href="#aB"/><use transform="matrix(0.05,0,0,0.05,11.350000000000001,0)" xlink:href="#ap"/><use transform="matrix(0.05,0,0,0.05,15.3,0)" xlink:href="#am"/><use transform="matrix(0.05,0,0,0.05,25.3,0)" xlink:href="#au"/></g><g id="q"><use transform="matrix(0.05,0,0,0.05,0,0)" xlink:href="#am"/><use transform="matrix(0.05,0,0,0.05,10,0)" xlink:href="#aw"/></g><g id="r"><use transform="matrix(0.05,0,0,0.05,0,0)" xlink:href="#ao"/><use transform="matrix(0.05,0,0,0.05,10,0)" xlink:href="#aj"/><use transform="matrix(0.05,0,0,0.05,20,0)" xlink:href="#af"/><use transform="matrix(0.05,0,0,0.05,25,0)" xlink:href="#ag"/><use transform="matrix(0.05,0,0,0.05,35,0)" xlink:href="#aJ"/></g><path d="M190 0L58-211 59 0H30v-248h39L202-35l-2-213h31V0h-41" id="aK"/><g id="s"><use transform="matrix(0.05,0,0,0.05,0,0)" xlink:href="#aK"/><use transform="matrix(0.05,0,0,0.05,12.950000000000001,0)" xlink:href="#am"/></g><g id="t"><use transform="matrix(0.05,0,0,0.05,0,0)" xlink:href="#ai"/><use transform="matrix(0.05,0,0,0.05,9,0)" xlink:href="#am"/><use transform="matrix(0.05,0,0,0.05,19,0)" xlink:href="#an"/><use transform="matrix(0.05,0,0,0.05,33.95,0)" xlink:href="#an"/><use transform="matrix(0.05,0,0,0.05,48.900000000000006,0)" xlink:href="#aI"/><use transform="matrix(0.05,0,0,0.05,52.85,0)" xlink:href="#af"/></g><g id="u"><use transform="matrix(0.05,0,0,0.05,0,0)" xlink:href="#af"/><use transform="matrix(0.05,0,0,0.05,5,0)" xlink:href="#am"/></g><g id="v"><use transform="matrix(0.05,0,0,0.05,0,0)" xlink:href="#aC"/><use transform="matrix(0.05,0,0,0.05,14.950000000000001,0)" xlink:href="#aD"/><use transform="matrix(0.05,0,0,0.05,24.950000000000003,0)" xlink:href="#aE"/><use transform="matrix(0.05,0,0,0.05,33.95,0)" xlink:href="#ay"/><use transform="matrix(0.05,0,0,0.05,38.95,0)" xlink:href="#aF"/><use transform="matrix(0.05,0,0,0.05,48.95,0)" xlink:href="#ax"/></g><path d="M160-131c35 5 61 23 61 61C221 17 115-2 30 0v-248c76 3 177-17 177 60 0 33-19 50-47 57zm-97-11c50-1 110 9 110-42 0-47-63-36-110-37v79zm0 115c55-2 124 14 124-45 0-56-70-42-124-44v89" id="aL"/><path d="M84 4C-5 8 30-112 23-190h32v120c0 31 7 50 39 49 72-2 45-101 50-169h31l1 190h-30c-1-10 1-25-2-33-11 22-28 36-60 37" id="aM"/><path d="M85-194c31 0 48 13 60 33l-1-100h32l1 261h-30c-2-10 0-23-3-31C134-8 116 4 85 4 32 4 16-35 15-94c0-66 23-100 70-100zm9 24c-40 0-46 34-46 75 0 40 6 74 45 74 42 0 51-32 51-76 0-42-9-74-50-73" id="aN"/><g id="w"><use transform="matrix(0.05,0,0,0.05,0,0)" xlink:href="#aL"/><use transform="matrix(0.05,0,0,0.05,12,0)" xlink:href="#aM"/><use transform="matrix(0.05,0,0,0.05,22,0)" xlink:href="#aI"/><use transform="matrix(0.05,0,0,0.05,25.950000000000003,0)" xlink:href="#ap"/><use transform="matrix(0.05,0,0,0.05,29.899999999999995,0)" xlink:href="#aN"/></g><g id="x"><use transform="matrix(0.05,0,0,0.05,0,0)" xlink:href="#aj"/><use transform="matrix(0.05,0,0,0.05,10,0)" xlink:href="#ak"/></g><g id="y"><use transform="matrix(0.05,0,0,0.05,0,0)" xlink:href="#aI"/><use transform="matrix(0.05,0,0,0.05,3.95,0)" xlink:href="#ae"/><use transform="matrix(0.05,0,0,0.05,12.949999999999998,0)" xlink:href="#am"/><use transform="matrix(0.05,0,0,0.05,22.95,0)" xlink:href="#ap"/><use transform="matrix(0.05,0,0,0.05,26.899999999999995,0)" xlink:href="#aj"/><use transform="matrix(0.05,0,0,0.05,36.9,0)" xlink:href="#af"/><use transform="matrix(0.05,0,0,0.05,41.9,0)" xlink:href="#ah"/><use transform="matrix(0.05,0,0,0.05,51.900000000000006,0)" xlink:href="#aN"/></g><path d="M108 0H70L1-190h34L89-25l56-165h34" id="aO"/><g id="z"><use transform="matrix(0.05,0,0,0.05,0,0)" xlink:href="#aN"/><use transform="matrix(0.05,0,0,0.05,10,0)" xlink:href="#ah"/><use transform="matrix(0.05,0,0,0.05,20,0)" xlink:href="#aO"/></g><g id="A"><use transform="matrix(0.05,0,0,0.05,0,0)" xlink:href="#ah"/><use transform="matrix(0.05,0,0,0.05,10,0)" xlink:href="#ak"/><use transform="matrix(0.05,0,0,0.05,20,0)" xlink:href="#aO"/></g><g id="B"><use transform="matrix(0.05,0,0,0.05,0,0)" xlink:href="#aB"/><use transform="matrix(0.05,0,0,0.05,5,0)" xlink:href="#am"/><use transform="matrix(0.05,0,0,0.05,15,0)" xlink:href="#aw"/></g><g id="C"><use transform="matrix(0.05,0,0,0.05,0,0)" xlink:href="#ax"/><use transform="matrix(0.05,0,0,0.05,5.95,0)" xlink:href="#ay"/><use transform="matrix(0.05,0,0,0.05,10.95,0)" xlink:href="#az"/><use transform="matrix(0.05,0,0,0.05,20.95,0)" xlink:href="#az"/><use transform="matrix(0.05,0,0,0.05,30.950000000000003,0)" xlink:href="#aA"/><use transform="matrix(0.05,0,0,0.05,40.95,0)" xlink:href="#aA"/></g><g id="D"><use transform="matrix(0.05,0,0,0.05,0,0)" xlink:href="#aL"/><use transform="matrix(0.05,0,0,0.05,12,0)" xlink:href="#aM"/><use transform="matrix(0.05,0,0,0.05,22,0)" xlink:href="#aI"/><use transform="matrix(0.05,0,0,0.05,25.950000000000003,0)" xlink:href="#ap"/><use transform="matrix(0.05,0,0,0.05,29.899999999999995,0)" xlink:href="#aN"/></g><g id="E"><use transform="matrix(0.05,0,0,0.05,0,0)" xlink:href="#ax"/><use transform="matrix(0.05,0,0,0.05,5.95,0)" xlink:href="#ay"/><use transform="matrix(0.05,0,0,0.05,10.95,0)" xlink:href="#az"/><use transform="matrix(0.05,0,0,0.05,20.95,0)" xlink:href="#az"/><use transform="matrix(0.05,0,0,0.05,30.950000000000003,0)" xlink:href="#aA"/><use transform="matrix(0.05,0,0,0.05,40.95,0)" xlink:href="#aA"/></g><path d="M212-179c-10-28-35-45-73-45-59 0-87 40-87 99 0 60 29 101 89 101 43 0 62-24 78-52l27 14C228-24 195 4 139 4 59 4 22-46 18-125c-6-104 99-153 187-111 19 9 31 26 39 46" id="aP"/><g id="F"><use transform="matrix(0.05,0,0,0.05,0,0)" xlink:href="#aP"/><use transform="matrix(0.05,0,0,0.05,12.950000000000001,0)" xlink:href="#ag"/><use transform="matrix(0.05,0,0,0.05,22.950000000000003,0)" xlink:href="#aj"/><use transform="matrix(0.05,0,0,0.05,32.95,0)" xlink:href="#ak"/><use transform="matrix(0.05,0,0,0.05,42.95,0)" xlink:href="#al"/><use transform="matrix(0.05,0,0,0.05,52.95,0)" xlink:href="#ah"/></g><g id="G"><use transform="matrix(0.05,0,0,0.05,0,0)" xlink:href="#aw"/><use transform="matrix(0.05,0,0,0.05,5.95,0)" xlink:href="#ah"/><use transform="matrix(0.05,0,0,0.05,15.949999999999998,0)" xlink:href="#aO"/><use transform="matrix(0.05,0,0,0.05,24.95,0)" xlink:href="#aI"/><use transform="matrix(0.05,0,0,0.05,28.899999999999995,0)" xlink:href="#ah"/><use transform="matrix(0.05,0,0,0.05,38.9,0)" xlink:href="#au"/></g><path d="M140-251c81 0 123 46 123 126C263-46 219 4 140 4 59 4 17-45 17-125s42-126 123-126zm0 227c63 0 89-41 89-101s-29-99-89-99c-61 0-89 39-89 99S79-25 140-24" id="aQ"/><path d="M194 0L95-120 63-95V0H30v-248h33v124l119-124h40L117-140 236 0h-42" id="aR"/><g id="H"><use transform="matrix(0.05,0,0,0.05,0,0)" xlink:href="#aQ"/><use transform="matrix(0.05,0,0,0.05,14,0)" xlink:href="#aR"/><use transform="matrix(0.05,0,0,0.05,26,0)" xlink:href="#ar"/></g><path d="M127-220V0H93v-220H8v-28h204v28h-85" id="aS"/><g id="I"><use transform="matrix(0.05,0,0,0.05,0,0)" xlink:href="#aS"/><use transform="matrix(0.05,0,0,0.05,8.950000000000001,0)" xlink:href="#ah"/><use transform="matrix(0.05,0,0,0.05,18.950000000000003,0)" xlink:href="#ae"/><use transform="matrix(0.05,0,0,0.05,27.950000000000003,0)" xlink:href="#af"/><use transform="matrix(0.05,0,0,0.05,32.95,0)" xlink:href="#ae"/></g><g id="J"><use transform="matrix(0.05,0,0,0.05,0,0)" xlink:href="#aQ"/><use transform="matrix(0.05,0,0,0.05,14,0)" xlink:href="#aR"/><use transform="matrix(0.05,0,0,0.05,26,0)" xlink:href="#ar"/></g><g id="K"><use transform="matrix(0.05,0,0,0.05,0,0)" xlink:href="#as"/><use transform="matrix(0.05,0,0,0.05,14.950000000000001,0)" xlink:href="#ah"/><use transform="matrix(0.05,0,0,0.05,24.950000000000003,0)" xlink:href="#aw"/><use transform="matrix(0.05,0,0,0.05,30.900000000000002,0)" xlink:href="#al"/><use transform="matrix(0.05,0,0,0.05,40.900000000000006,0)" xlink:href="#ah"/></g><g id="L"><use transform="matrix(0.05,0,0,0.05,0,0)" xlink:href="#ax"/><use transform="matrix(0.05,0,0,0.05,5.95,0)" xlink:href="#ay"/><use transform="matrix(0.05,0,0,0.05,10.95,0)" xlink:href="#az"/><use transform="matrix(0.05,0,0,0.05,20.95,0)" xlink:href="#az"/><use transform="matrix(0.05,0,0,0.05,30.950000000000003,0)" xlink:href="#aA"/><use transform="matrix(0.05,0,0,0.05,40.95,0)" xlink:href="#aA"/></g><g id="M"><use transform="matrix(0.05,0,0,0.05,0,0)" xlink:href="#af"/><use transform="matrix(0.05,0,0,0.05,5,0)" xlink:href="#am"/></g><path d="M30-248c118-7 216 8 213 122C240-48 200 0 122 0H30v-248zM63-27c89 8 146-16 146-99s-60-101-146-95v194" id="aT"/><path d="M179-190L93 31C79 59 56 82 12 73V49c39 6 53-20 64-50L1-190h34L92-34l54-156h33" id="aU"/><g id="N"><use transform="matrix(0.05,0,0,0.05,0,0)" xlink:href="#aT"/><use transform="matrix(0.05,0,0,0.05,12.950000000000001,0)" xlink:href="#ah"/><use transform="matrix(0.05,0,0,0.05,22.950000000000003,0)" xlink:href="#ao"/><use transform="matrix(0.05,0,0,0.05,32.95,0)" xlink:href="#ap"/><use transform="matrix(0.05,0,0,0.05,36.900000000000006,0)" xlink:href="#am"/><use transform="matrix(0.05,0,0,0.05,46.900000000000006,0)" xlink:href="#aU"/></g><g id="O"><use transform="matrix(0.05,0,0,0.05,0,0)" xlink:href="#ax"/><use transform="matrix(0.05,0,0,0.05,5.95,0)" xlink:href="#ay"/><use transform="matrix(0.05,0,0,0.05,10.95,0)" xlink:href="#az"/><use transform="matrix(0.05,0,0,0.05,20.95,0)" xlink:href="#az"/><use transform="matrix(0.05,0,0,0.05,30.950000000000003,0)" xlink:href="#aA"/><use transform="matrix(0.05,0,0,0.05,40.95,0)" xlink:href="#aA"/></g><g id="P"><use transform="matrix(0.05,0,0,0.05,0,0)" xlink:href="#af"/><use transform="matrix(0.05,0,0,0.05,5,0)" xlink:href="#am"/></g><g id="Q"><use transform="matrix(0.05,0,0,0.05,0,0)" xlink:href="#aI"/><use transform="matrix(0.05,0,0,0.05,3.95,0)" xlink:href="#af"/><use transform="matrix(0.05,0,0,0.05,8.95,0)" xlink:href="#ae"/></g><g id="R"><use transform="matrix(0.05,0,0,0.05,0,0)" xlink:href="#aN"/><use transform="matrix(0.05,0,0,0.05,10,0)" xlink:href="#ah"/><use transform="matrix(0.05,0,0,0.05,20,0)" xlink:href="#aO"/></g><g id="S"><use transform="matrix(0.05,0,0,0.05,0,0)" xlink:href="#ah"/><use transform="matrix(0.05,0,0,0.05,10,0)" xlink:href="#ak"/><use transform="matrix(0.05,0,0,0.05,20,0)" xlink:href="#aO"/></g><g id="T"><use transform="matrix(0.05,0,0,0.05,0,0)" xlink:href="#as"/><use transform="matrix(0.05,0,0,0.05,14.950000000000001,0)" xlink:href="#am"/><use transform="matrix(0.05,0,0,0.05,24.950000000000003,0)" xlink:href="#ak"/><use transform="matrix(0.05,0,0,0.05,34.95,0)" xlink:href="#aI"/><use transform="matrix(0.05,0,0,0.05,38.900000000000006,0)" xlink:href="#af"/><use transform="matrix(0.05,0,0,0.05,43.900000000000006,0)" xlink:href="#am"/><use transform="matrix(0.05,0,0,0.05,53.900000000000006,0)" xlink:href="#aw"/><use transform="matrix(0.05,0,0,0.05,59.85,0)" xlink:href="#aI"/><use transform="matrix(0.05,0,0,0.05,63.80000000000001,0)" xlink:href="#ak"/><use transform="matrix(0.05,0,0,0.05,73.80000000000001,0)" xlink:href="#al"/></g><g id="U"><use transform="matrix(0.05,0,0,0.05,0,0)" xlink:href="#aG"/><use transform="matrix(0.05,0,0,0.05,10.35,0)" xlink:href="#ah"/><use transform="matrix(0.05,0,0,0.05,20.35,0)" xlink:href="#ae"/></g><g id="V"><use transform="matrix(0.05,0,0,0.05,0,0)" xlink:href="#aC"/><use transform="matrix(0.05,0,0,0.05,14.950000000000001,0)" xlink:href="#aD"/><use transform="matrix(0.05,0,0,0.05,24.950000000000003,0)" xlink:href="#aE"/><use transform="matrix(0.05,0,0,0.05,33.95,0)" xlink:href="#ay"/><use transform="matrix(0.05,0,0,0.05,38.95,0)" xlink:href="#aF"/><use transform="matrix(0.05,0,0,0.05,48.95,0)" xlink:href="#ax"/></g><g id="W"><use transform="matrix(0.05,0,0,0.05,0,0)" xlink:href="#af"/><use transform="matrix(0.05,0,0,0.05,5,0)" xlink:href="#am"/></g><g id="X"><use transform="matrix(0.05,0,0,0.05,0,0)" xlink:href="#af"/><use transform="matrix(0.05,0,0,0.05,5,0)" xlink:href="#ag"/><use transform="matrix(0.05,0,0,0.05,15,0)" xlink:href="#ah"/></g><g id="Y"><use transform="matrix(0.05,0,0,0.05,0,0)" xlink:href="#af"/><use transform="matrix(0.05,0,0,0.05,5,0)" xlink:href="#ah"/><use transform="matrix(0.05,0,0,0.05,15,0)" xlink:href="#ae"/><use transform="matrix(0.05,0,0,0.05,24,0)" xlink:href="#af"/></g><g id="Z"><use transform="matrix(0.05,0,0,0.05,0,0)" xlink:href="#as"/><use transform="matrix(0.05,0,0,0.05,14.950000000000001,0)" xlink:href="#ah"/><use transform="matrix(0.05,0,0,0.05,24.950000000000003,0)" xlink:href="#aw"/><use transform="matrix(0.05,0,0,0.05,30.900000000000002,0)" xlink:href="#al"/><use transform="matrix(0.05,0,0,0.05,40.900000000000006,0)" xlink:href="#ah"/></g><g id="aa"><use transform="matrix(0.05,0,0,0.05,0,0)" xlink:href="#aC"/><use transform="matrix(0.05,0,0,0.05,14.950000000000001,0)" xlink:href="#aD"/><use transform="matrix(0.05,0,0,0.05,24.950000000000003,0)" xlink:href="#aE"/><use transform="matrix(0.05,0,0,0.05,33.95,0)" xlink:href="#ay"/><use transform="matrix(0.05,0,0,0.05,38.95,0)" xlink:href="#aF"/><use transform="matrix(0.05,0,0,0.05,48.95,0)" xlink:href="#ax"/></g><g id="ab"><use transform="matrix(0.05,0,0,0.05,0,0)" xlink:href="#af"/><use transform="matrix(0.05,0,0,0.05,5,0)" xlink:href="#am"/></g><path d="M67-162c32-53 139-36 121 50C175-51 163 2 97 4 68 4 52-11 42-31 38 6 28 39 22 75H-9l50-265h29c-1 10 0 20-3 28zm89 36c0-26-10-43-35-43-54 0-67 50-69 103-1 29 14 45 42 46 53 0 62-58 62-106" id="aV"/><path d="M30-147c31-64 166-65 159 27C183-49 158 1 86 4 9 8 1-88 30-147zM88-20c53 0 68-48 68-100 0-31-11-51-44-50-52 1-68 46-68 97 0 32 13 53 44 53" id="aW"/><path d="M133-28C103 26-5 8 13-77c13-62 24-115 90-117 29-1 46 15 56 35l19-102h32L160 0h-30zM45-64c-2 27 10 43 35 43 54-1 69-50 69-103 0-29-15-46-42-46-53-1-58 58-62 106" id="aX"/><path d="M67 3c-93-2-31-127-26-193h32L48-50c-3 39 53 32 70 12 30-34 30-101 43-152h32L157 0h-30c1-10 6-24 4-33-14 20-29 37-64 36" id="aY"/><path d="M44-68c0 29 11 47 38 47 30 0 42-19 51-41l28 9C148-21 126 4 82 4 31 4 10-29 12-85c3-77 74-140 146-93 12 8 15 23 18 40l-31 5c-1-22-13-36-36-36-52 0-65 49-65 101" id="aZ"/><path d="M50-231l6-30h32l-6 30H50zM6 0l37-190h31L37 0H6" id="ba"/><path d="M67-158c22-48 132-52 116 29L158 0h-32l25-140c3-38-53-32-70-12C52-117 51-52 38 0H6l36-190h30" id="bb"/><g id="ac"><use transform="matrix(0.05,0,0,0.05,0,0)" xlink:href="#aV"/><use transform="matrix(0.05,0,0,0.05,10,0)" xlink:href="#ax"/><use transform="matrix(0.05,0,0,0.05,15.949999999999998,0)" xlink:href="#aW"/><use transform="matrix(0.05,0,0,0.05,25.950000000000003,0)" xlink:href="#aX"/><use transform="matrix(0.05,0,0,0.05,35.95,0)" xlink:href="#aY"/><use transform="matrix(0.05,0,0,0.05,45.95,0)" xlink:href="#aZ"/><use transform="matrix(0.05,0,0,0.05,54.95,0)" xlink:href="#ay"/><use transform="matrix(0.05,0,0,0.05,59.95,0)" xlink:href="#ba"/><use transform="matrix(0.05,0,0,0.05,63.900000000000006,0)" xlink:href="#aW"/><use transform="matrix(0.05,0,0,0.05,73.9,0)" xlink:href="#bb"/></g></defs></g></svg>